<svg width="60" height="143" viewBox="0 0 60 143" fill="none" xmlns="http://www.w3.org/2000/svg">
<path fill-rule="evenodd" clip-rule="evenodd" d="M45.8106 109.854C44.0197 109.916 32.4076 103.924 34.4497 100.307C40.0486 90.2656 45.7433 65.5627 42.8617 63.7607C41.3742 62.8563 39.9273 62.7071 38.6477 62.8517C35.9387 63.2719 33.7718 65.3285 33.3425 68.0715C29.8836 89.0772 29.6266 89.3882 27.1746 98.8057C26.4961 98.4287 24.0427 97.221 23.521 96.62C12.6528 84.0991 3.34143 89.4589 5.78665 106.744C6.93905 115.053 6.01632 127.446 3.23842 138.815C1.96944 144.132 5.05973 143.646 10.6485 137.741C16.6445 131.394 26.8063 123.979 35.3267 119.833C47.2605 113.953 49.6796 109.658 45.8106 109.854ZM44.2479 49.4729C38.9423 28.0829 10.3326 21.1249 2.3742 39.274C-2.7824 51.0391 3.17622 61.8497 15.0848 62.3151C21.5102 62.534 35.0081 57.1409 33.1387 54.9873C31.3997 52.9838 25.8877 53.8172 19.4048 57.0732C10.0963 61.728 5.67504 43.785 14.112 35.4956C19.8246 29.8345 28.0624 35.6826 34.8863 50.2218C36.5998 53.9159 38.0874 54.8203 41.2344 54.1964C44.5619 53.6793 45.0958 52.7767 44.2479 49.4729ZM56.0679 34.5585C61.6071 20.7048 60.8303 1.09224 54.7423 0.756078C49.3092 0.466197 48.5617 1.72974 48.9326 10.4535C49.2287 17.5735 47.963 31.4941 46.6033 36.0994C44.5736 42.867 53.2765 41.4603 56.0679 34.5585Z" fill="#C0AD88"/>
</svg>
