<svg width="24" height="24" viewBox="0 0 24 24" fill="none" xmlns="http://www.w3.org/2000/svg">
<path d="M14.5504 5.5C15.5272 5.69057 16.4248 6.16826 17.1285 6.87194C17.8322 7.57561 18.3099 8.47326 18.5004 9.45M14.5504 1.5C16.5797 1.72544 18.472 2.63417 19.9167 4.07701C21.3613 5.51984 22.2724 7.41101 22.5004 9.44M21.5004 17.42V20.42C21.5016 20.6985 21.4445 20.9742 21.3329 21.2293C21.2214 21.4845 21.0577 21.7136 20.8525 21.9019C20.6473 22.0901 20.405 22.2335 20.1412 22.3227C19.8773 22.4119 19.5978 22.4451 19.3204 22.42C16.2433 22.0856 13.2874 21.0341 10.6904 19.35C8.27425 17.8147 6.22576 15.7662 4.69042 13.35C3.0004 10.7412 1.94866 7.77099 1.62042 4.68C1.59543 4.40347 1.6283 4.12476 1.71692 3.86162C1.80555 3.59849 1.94799 3.35669 2.13519 3.15162C2.32238 2.94655 2.55023 2.78271 2.80421 2.67052C3.0582 2.55833 3.33276 2.50026 3.61042 2.5H6.61042C7.09573 2.49522 7.56621 2.66708 7.93418 2.98353C8.30215 3.29999 8.5425 3.73945 8.61042 4.22C8.73704 5.18007 8.97187 6.12273 9.31042 7.03C9.44497 7.38792 9.47408 7.77691 9.39433 8.15088C9.31457 8.52485 9.12928 8.86811 8.86042 9.14L7.59042 10.41C9.01398 12.9135 11.0869 14.9864 13.5904 16.41L14.8604 15.14C15.1323 14.8711 15.4756 14.6858 15.8495 14.6061C16.2235 14.5263 16.6125 14.5555 16.9704 14.69C17.8777 15.0286 18.8204 15.2634 19.7804 15.39C20.2662 15.4585 20.7098 15.7032 21.027 16.0775C21.3441 16.4518 21.5126 16.9296 21.5004 17.42Z" stroke="#1E1E1E" stroke-width="1.5" stroke-linecap="round" stroke-linejoin="round"/>
</svg>
