<svg width="14" height="14" viewBox="0 0 14 14" fill="none" xmlns="http://www.w3.org/2000/svg">
<path d="M4.60016 10.3333L7.00016 7.93333L9.40016 10.3333L10.3335 9.4L7.9335 7L10.3335 4.6L9.40016 3.66666L7.00016 6.06666L4.60016 3.66666L3.66683 4.6L6.06683 7L3.66683 9.4L4.60016 10.3333ZM7.00016 13.6667C6.07794 13.6667 5.21127 13.4917 4.40016 13.1417C3.58905 12.7917 2.8835 12.3167 2.2835 11.7167C1.6835 11.1167 1.2085 10.4111 0.858496 9.6C0.508496 8.78888 0.333496 7.92222 0.333496 7C0.333496 6.07777 0.508496 5.21111 0.858496 4.39999C1.2085 3.58888 1.6835 2.88333 2.2835 2.28333C2.8835 1.68333 3.58905 1.20833 4.40016 0.858328C5.21127 0.508328 6.07794 0.333328 7.00016 0.333328C7.92239 0.333328 8.78905 0.508328 9.60016 0.858328C10.4113 1.20833 11.1168 1.68333 11.7168 2.28333C12.3168 2.88333 12.7918 3.58888 13.1418 4.39999C13.4918 5.21111 13.6668 6.07777 13.6668 7C13.6668 7.92222 13.4918 8.78888 13.1418 9.6C12.7918 10.4111 12.3168 11.1167 11.7168 11.7167C11.1168 12.3167 10.4113 12.7917 9.60016 13.1417C8.78905 13.4917 7.92239 13.6667 7.00016 13.6667ZM7.00016 12.3333C8.48905 12.3333 9.75016 11.8167 10.7835 10.7833C11.8168 9.75 12.3335 8.48888 12.3335 7C12.3335 5.51111 11.8168 4.25 10.7835 3.21666C9.75016 2.18333 8.48905 1.66666 7.00016 1.66666C5.51127 1.66666 4.25016 2.18333 3.21683 3.21666C2.1835 4.25 1.66683 5.51111 1.66683 7C1.66683 8.48888 2.1835 9.75 3.21683 10.7833C4.25016 11.8167 5.51127 12.3333 7.00016 12.3333Z" fill="#1D1B20"/>
</svg>
