<svg width="25" height="24" viewBox="0 0 25 24" fill="none" xmlns="http://www.w3.org/2000/svg">
<path d="M12.5 22.75C6.57 22.75 1.75 17.93 1.75 12C1.75 6.07 6.57 1.25 12.5 1.25C18.43 1.25 23.25 6.07 23.25 12C23.25 17.93 18.43 22.75 12.5 22.75ZM12.5 2.75C7.4 2.75 3.25 6.9 3.25 12C3.25 17.1 7.4 21.25 12.5 21.25C17.6 21.25 21.75 17.1 21.75 12C21.75 6.9 17.6 2.75 12.5 2.75Z" fill="#292D32"/>
<path d="M9.49999 21.75H8.49999C8.08999 21.75 7.74999 21.41 7.74999 21C7.74999 20.59 8.06999 20.26 8.47999 20.25C6.90999 14.89 6.90999 9.11 8.47999 3.75C8.06999 3.74 7.74999 3.41 7.74999 3C7.74999 2.59 8.08999 2.25 8.49999 2.25H9.49999C9.73999 2.25 9.96999 2.37 10.11 2.56C10.25 2.76 10.29 3.01 10.21 3.24C8.32999 8.89 8.32999 15.11 10.21 20.77C10.29 21 10.25 21.25 10.11 21.45C9.96999 21.63 9.73999 21.75 9.49999 21.75Z" fill="#292D32"/>
<path d="M15.4999 21.75C15.4199 21.75 15.3399 21.74 15.2599 21.71C14.8699 21.58 14.6499 21.15 14.7899 20.76C16.6699 15.11 16.6699 8.89 14.7899 3.23C14.6599 2.84 14.8699 2.41 15.2599 2.28C15.6599 2.15 16.0799 2.36 16.2099 2.75C18.1999 8.71 18.1999 15.27 16.2099 21.22C16.1099 21.55 15.8099 21.75 15.4999 21.75Z" fill="#292D32"/>
<path d="M12.5 17.2C9.71 17.2 6.93 16.81 4.25 16.02C4.24 16.42 3.91 16.75 3.5 16.75C3.09 16.75 2.75 16.41 2.75 16V15C2.75 14.76 2.87 14.53 3.06 14.39C3.26 14.25 3.51 14.21 3.74 14.29C9.39 16.17 15.62 16.17 21.27 14.29C21.5 14.21 21.75 14.25 21.95 14.39C22.15 14.53 22.26 14.76 22.26 15V16C22.26 16.41 21.92 16.75 21.51 16.75C21.1 16.75 20.77 16.43 20.76 16.02C18.07 16.81 15.29 17.2 12.5 17.2Z" fill="#292D32"/>
<path d="M21.5 9.75C21.42 9.75 21.34 9.74 21.26 9.71C15.61 7.83 9.38003 7.83 3.73003 9.71C3.33003 9.84 2.91003 9.63 2.78003 9.24C2.66003 8.84 2.87003 8.42 3.26003 8.29C9.22003 6.3 15.78 6.3 21.73 8.29C22.12 8.42 22.34 8.85 22.2 9.24C22.11 9.55 21.81 9.75 21.5 9.75Z" fill="#292D32"/>
</svg>
