<svg width="99" height="73" viewBox="0 0 99 73" fill="none" xmlns="http://www.w3.org/2000/svg">
<path d="M18.0171 33.4431C18.0171 33.4431 23.0961 33.8385 26.5416 35.4981C29.9871 37.1577 37.6976 43.6402 44.884 46.9538C52.0705 50.2674 63.2154 53.8762 66.672 56.1205C70.1286 58.3649 70.8255 61.7731 70.8255 61.7731L82.2157 38.149C82.2157 38.149 79.6511 40.1316 76.2725 39.2406C72.8939 38.3495 61.8048 30.3801 52.7172 26.1532C43.6296 21.9262 35.9303 19.977 32.4848 18.323C29.0393 16.6634 28.5487 11.6067 28.5487 11.6067L18.0171 33.4487V33.4431Z" fill="#C0AD88"/>
<path d="M70.831 61.7674C70.831 61.7674 68.6177 67.0246 73.1169 70.0542C77.6216 73.0838 82.8289 74.6487 86.0513 70.2436C89.2738 65.8384 104.31 41.8022 95.0386 36.79C85.7057 31.7499 82.2212 38.1433 82.2212 38.1433L70.831 61.7674Z" fill="#C0AD88"/>
<path d="M18.017 33.443C18.017 33.443 14.7666 38.8116 11.1706 38.9063C7.57457 39.001 0.889885 36.3557 0.0536027 32.1232C-0.782679 27.8906 8.35511 5.74233 14.2871 1.40957C20.2136 -2.92319 27.3108 3.84327 28.2809 6.80046C29.251 9.75765 28.5485 11.6066 28.5485 11.6066L18.017 33.4486V33.443Z" fill="#C0AD88"/>
<path d="M18.0171 33.4431C19.8736 30.614 21.8082 27.3171 23.6425 23.5524C25.6496 19.4424 27.1549 15.5774 28.2866 12.1357" stroke="black" stroke-width="0.98" stroke-linecap="round" stroke-linejoin="round"/>
<path d="M70.8311 61.7674C72.0855 58.1141 73.68 54.0876 75.7205 49.8273C77.8447 45.3998 80.0747 41.5015 82.2156 38.1433" stroke="black" stroke-width="0.98" stroke-linecap="round" stroke-linejoin="round"/>
</svg>
