<svg width="15" height="21" viewBox="0 0 15 21" fill="none" xmlns="http://www.w3.org/2000/svg">
<path d="M7.5 20.5C7.26667 20.5 7.06667 20.4333 6.9 20.3C6.73333 20.1667 6.60833 19.9917 6.525 19.775C6.20833 18.8417 5.80833 17.9667 5.325 17.15C4.85833 16.3333 4.2 15.375 3.35 14.275C2.5 13.175 1.80833 12.125 1.275 11.125C0.758333 10.125 0.5 8.91667 0.5 7.5C0.5 5.55 1.175 3.9 2.525 2.55C3.89167 1.18333 5.55 0.5 7.5 0.5C9.45 0.5 11.1 1.18333 12.45 2.55C13.8167 3.9 14.5 5.55 14.5 7.5C14.5 9.01667 14.2083 10.2833 13.625 11.3C13.0583 12.3 12.4 13.2917 11.65 14.275C10.75 15.475 10.0667 16.475 9.6 17.275C9.15 18.0583 8.775 18.8917 8.475 19.775C8.39167 20.0083 8.25833 20.1917 8.075 20.325C7.90833 20.4417 7.71667 20.5 7.5 20.5ZM7.5 16.925C7.78333 16.3583 8.1 15.8 8.45 15.25C8.81667 14.7 9.35 13.9667 10.05 13.05C10.7667 12.1167 11.35 11.2583 11.8 10.475C12.2667 9.675 12.5 8.68333 12.5 7.5C12.5 6.11667 12.0083 4.94167 11.025 3.975C10.0583 2.99167 8.88333 2.5 7.5 2.5C6.11667 2.5 4.93333 2.99167 3.95 3.975C2.98333 4.94167 2.5 6.11667 2.5 7.5C2.5 8.68333 2.725 9.675 3.175 10.475C3.64167 11.2583 4.23333 12.1167 4.95 13.05C5.65 13.9667 6.175 14.7 6.525 15.25C6.89167 15.8 7.21667 16.3583 7.5 16.925ZM7.5 10C8.2 10 8.79167 9.75833 9.275 9.275C9.75833 8.79167 10 8.2 10 7.5C10 6.8 9.75833 6.20833 9.275 5.725C8.79167 5.24167 8.2 5 7.5 5C6.8 5 6.20833 5.24167 5.725 5.725C5.24167 6.20833 5 6.8 5 7.5C5 8.2 5.24167 8.79167 5.725 9.275C6.20833 9.75833 6.8 10 7.5 10Z" fill="#1D1B20"/>
</svg>
