<svg width="13" height="15" viewBox="0 0 13 15" fill="none" xmlns="http://www.w3.org/2000/svg">
<path d="M3.375 6.875V4.375C3.375 3.5462 3.70424 2.75134 4.29029 2.16529C4.87634 1.57924 5.6712 1.25 6.5 1.25C7.3288 1.25 8.12366 1.57924 8.70971 2.16529C9.29576 2.75134 9.625 3.5462 9.625 4.375V6.875M2.125 6.875H10.875C11.5654 6.875 12.125 7.43464 12.125 8.125V12.5C12.125 13.1904 11.5654 13.75 10.875 13.75H2.125C1.43464 13.75 0.875 13.1904 0.875 12.5V8.125C0.875 7.43464 1.43464 6.875 2.125 6.875Z" stroke="black" stroke-linecap="round" stroke-linejoin="round"/>
</svg>
