<svg width="21" height="20" viewBox="0 0 21 20" fill="none" xmlns="http://www.w3.org/2000/svg">
<path d="M20.4277 14.5482C20.2898 14.1702 20.0242 13.966 19.7229 13.8025C19.6667 13.7719 19.6157 13.7412 19.5697 13.7208C19.4778 13.6749 19.3858 13.6289 19.2939 13.5829C18.3542 13.0824 17.6188 12.4594 17.1131 11.7137C16.9701 11.5043 16.8425 11.2796 16.7403 11.0498C16.6944 10.9272 16.6995 10.8557 16.7301 10.7893C16.7608 10.7382 16.8016 10.6974 16.8527 10.6616C17.0161 10.5544 17.1795 10.4471 17.2919 10.3756C17.4911 10.2428 17.6545 10.1407 17.7567 10.0692C18.1397 9.79852 18.4104 9.51252 18.5789 9.19077C18.8189 8.74134 18.8496 8.2153 18.6657 7.74034C18.4104 7.06619 17.7771 6.65251 17.0059 6.65251C16.8425 6.65251 16.6841 6.66784 16.5207 6.70359C16.4799 6.7138 16.4339 6.72401 16.393 6.73423C16.3981 6.27458 16.3879 5.7894 16.3471 5.30933C16.2041 3.62908 15.6116 2.75065 14.9988 2.05097C14.6055 1.61175 14.1459 1.23893 13.6301 0.94782C12.7006 0.416675 11.6434 0.145996 10.4943 0.145996C9.34516 0.145996 8.29309 0.416675 7.36359 0.94782C6.84776 1.23893 6.38812 1.61175 5.99487 2.05097C5.38201 2.75065 4.79469 3.63418 4.64658 5.30933C4.60572 5.7894 4.59551 6.27458 4.60061 6.73423C4.55976 6.72401 4.5189 6.7138 4.47294 6.70359C4.31461 6.66784 4.15119 6.65251 3.99286 6.65251C3.22168 6.65251 2.5884 7.0713 2.33304 7.74034C2.14918 8.2153 2.17982 8.74134 2.41986 9.19077C2.5884 9.51252 2.85907 9.79852 3.24211 10.0692C3.34425 10.1407 3.50258 10.2428 3.70686 10.3756C3.81411 10.4471 3.97243 10.5493 4.13076 10.6514C4.18694 10.6872 4.2329 10.7331 4.26865 10.7893C4.29929 10.8557 4.3044 10.9272 4.25333 11.06C4.15119 11.2847 4.02861 11.5043 3.88561 11.7086C3.39022 12.4338 2.67522 13.0518 1.76614 13.5472C1.28607 13.8025 0.785569 13.9711 0.571068 14.5482C0.412746 14.9823 0.51489 15.4726 0.918355 15.8914C1.06646 16.0446 1.24011 16.1774 1.42907 16.2795C1.82232 16.494 2.24111 16.6625 2.68032 16.78C2.77225 16.8055 2.85397 16.8413 2.93057 16.8924C3.07868 17.02 3.05825 17.2141 3.25233 17.5001C3.34936 17.6482 3.47704 17.7759 3.62004 17.878C4.03372 18.164 4.49847 18.1794 4.98876 18.1998C5.43308 18.2151 5.93358 18.2355 6.51069 18.4245C6.75073 18.5011 6.99587 18.6543 7.28187 18.8331C7.97134 19.257 8.91106 19.8341 10.4892 19.8341C12.0673 19.8341 13.0121 19.2519 13.7067 18.828C13.9927 18.6543 14.2378 18.5011 14.4676 18.4245C15.0396 18.2355 15.5453 18.2151 15.9896 18.1998C16.4799 18.1794 16.9446 18.164 17.3583 17.878C17.5319 17.7555 17.6749 17.6023 17.7771 17.4184C17.9201 17.1784 17.915 17.0098 18.0478 16.8924C18.1193 16.8413 18.201 16.8055 18.2827 16.7851C18.7219 16.6677 19.1509 16.4991 19.5493 16.2795C19.7484 16.1723 19.9323 16.0293 20.0855 15.8607L20.0906 15.8556C20.489 15.447 20.586 14.967 20.4277 14.5482ZM19.0283 15.2989C18.1754 15.7688 17.6034 15.7177 17.1642 16.0037C16.7863 16.2438 17.011 16.7647 16.7403 16.9536C16.4033 17.1835 15.4125 16.9383 14.1357 17.3622C13.0785 17.7095 12.4095 18.7156 10.5096 18.7156C8.60973 18.7156 7.95602 17.7146 6.88351 17.3622C5.60673 16.9383 4.61594 17.1886 4.27886 16.9536C4.00819 16.7647 4.22779 16.2438 3.85497 16.0037C3.41065 15.7177 2.84375 15.7688 1.99086 15.2989C1.44439 14.9976 1.75593 14.8138 1.93468 14.7269C5.02962 13.2305 5.52501 10.917 5.54544 10.7433C5.57097 10.534 5.60162 10.3705 5.3718 10.1611C5.15219 9.95684 4.17161 9.34909 3.89583 9.16013C3.4464 8.84348 3.24722 8.53195 3.39533 8.1438C3.49747 7.87823 3.74772 7.77609 4.00819 7.77609C4.0899 7.77609 4.17161 7.7863 4.25333 7.80162C4.74872 7.90887 5.2288 8.15402 5.50458 8.22552C5.54033 8.23573 5.57098 8.24084 5.60673 8.24084C5.75483 8.24084 5.8059 8.16423 5.79569 7.9957C5.76505 7.45434 5.68844 6.40226 5.77526 5.41658C5.89273 4.06318 6.32683 3.38904 6.84776 2.79661C7.09801 2.51061 8.26755 1.27468 10.5096 1.27468C12.7516 1.27468 13.9212 2.5055 14.1714 2.7915C14.6924 3.38393 15.1265 4.05808 15.2439 5.41147C15.3308 6.39716 15.2541 7.44923 15.2184 7.99059C15.2082 8.16934 15.2593 8.23573 15.4074 8.23573C15.4431 8.23573 15.4738 8.23063 15.5095 8.22041C15.7853 8.15402 16.2654 7.90377 16.7608 7.79652C16.8425 7.77609 16.9242 7.77098 17.0059 7.77098C17.2664 7.77098 17.5166 7.87312 17.6188 8.1387C17.7669 8.52684 17.5677 8.83838 17.1183 9.15502C16.8476 9.34398 15.867 9.95174 15.6423 10.156C15.4125 10.3654 15.4431 10.5288 15.4686 10.7382C15.4891 10.9119 15.9845 13.2254 19.0794 14.7218C19.2633 14.8086 19.5697 14.9976 19.0283 15.2989Z" fill="#C0AD88"/>
</svg>
