<svg width="17" height="17" viewBox="0 0 17 17" fill="none" xmlns="http://www.w3.org/2000/svg">
<path d="M9.56283 6.55206H1.41699C1.12658 6.55206 0.885742 6.31123 0.885742 6.02081C0.885742 5.7304 1.12658 5.48956 1.41699 5.48956H9.56283C9.85324 5.48956 10.0941 5.7304 10.0941 6.02081C10.0941 6.31123 9.85324 6.55206 9.56283 6.55206Z" fill="black"/>
<path d="M5.66667 12.2188H4.25C3.95958 12.2188 3.71875 11.9779 3.71875 11.6875C3.71875 11.3971 3.95958 11.1562 4.25 11.1562H5.66667C5.95708 11.1562 6.19792 11.3971 6.19792 11.6875C6.19792 11.9779 5.95708 12.2188 5.66667 12.2188Z" fill="black"/>
<path d="M10.2708 12.2188H7.4375C7.14708 12.2188 6.90625 11.9779 6.90625 11.6875C6.90625 11.3971 7.14708 11.1562 7.4375 11.1562H10.2708C10.5612 11.1562 10.8021 11.3971 10.8021 11.6875C10.8021 11.9779 10.5612 12.2188 10.2708 12.2188Z" fill="black"/>
<path d="M12.4387 15.0521H4.56199C1.74283 15.0521 0.885742 14.2021 0.885742 11.4113V5.58877C0.885742 2.79794 1.74283 1.94794 4.56199 1.94794H9.56283C9.85324 1.94794 10.0941 2.18877 10.0941 2.47919C10.0941 2.7696 9.85324 3.01044 9.56283 3.01044H4.56199C2.33783 3.01044 1.94824 3.39294 1.94824 5.58877V11.4042C1.94824 13.6 2.33783 13.9825 4.56199 13.9825H12.4316C14.6557 13.9825 15.0453 13.6 15.0453 11.4042V7.80585C15.0453 7.51544 15.2862 7.2746 15.5766 7.2746C15.867 7.2746 16.1078 7.51544 16.1078 7.80585V11.4042C16.1149 14.2021 15.2578 15.0521 12.4387 15.0521Z" fill="black"/>
<path d="M12.7502 5.84377C12.6156 5.84377 12.481 5.79419 12.3748 5.68794L11.3123 4.62544C11.1068 4.42002 11.1068 4.08002 11.3123 3.8746C11.5177 3.66919 11.8577 3.66919 12.0631 3.8746L12.7502 4.56169L15.2081 2.10377C15.4135 1.89835 15.7535 1.89835 15.9589 2.10377C16.1644 2.30919 16.1644 2.64919 15.9589 2.8546L13.1256 5.68794C13.0193 5.79419 12.8848 5.84377 12.7502 5.84377Z" fill="black"/>
</svg>
